<svg id="Capa_1" enable-background="new 0 0 497 497" height="512" viewBox="0 0 497 497" width="512" xmlns="http://www.w3.org/2000/svg"><g><path d="m104.59 181.95c-.08-1.81-.11-3.63-.11-5.46 0-79.54 64.48-144.02 144.02-144.02s144.02 64.48 144.02 144.02c0 1.83-.03 3.65-.11 5.46l-143.91 74.088z" fill="#ff97c0"/><path d="m248.5 419.64c-26.24 27.65-63.35 44.89-104.48 44.89-79.54 0-144.02-64.48-144.02-144.02 0-65.87 44.22-121.41 104.59-138.56l118.541 102.049z" fill="#5bd6fd"/><path d="m248.5 221.38c-23.34 24.59-38.09 57.42-39.43 93.67-58.7-16.67-102.12-69.64-104.48-133.1 12.53-3.56 25.76-5.46 39.43-5.46 41.13 0 78.24 17.24 104.48 44.89z" fill="#918bd7"/><path d="m392.41 181.95c60.37 17.15 104.59 72.69 104.59 138.56 0 79.54-64.48 144.02-144.02 144.02-41.13 0-78.24-17.24-104.48-44.89l16.629-130.049z" fill="#00dcc3"/><path d="m392.41 181.95c-2.36 63.46-45.78 116.43-104.48 133.1-1.34-36.25-16.09-69.08-39.43-93.67 26.24-27.65 63.35-44.89 104.48-44.89 13.67 0 26.9 1.9 39.43 5.46z" fill="#f9f097"/><path d="m287.93 315.05c-12.53 3.56-25.76 5.46-39.43 5.46s-26.9-1.9-39.43-5.46c1.34-36.25 16.09-69.08 39.43-93.67 23.34 24.59 38.09 57.42 39.43 93.67z" fill="#ececec"/><g><g><path d="m180.721 125.364c-4.143 0-7.5-3.358-7.5-7.5v-13.024c0-4.142 3.357-7.5 7.5-7.5s7.5 3.358 7.5 7.5v13.024c0 4.142-3.358 7.5-7.5 7.5z" fill="#423e4f"/></g><g><path d="m316.279 125.364c-4.143 0-7.5-3.358-7.5-7.5v-13.024c0-4.142 3.357-7.5 7.5-7.5s7.5 3.358 7.5 7.5v13.024c0 4.142-3.357 7.5-7.5 7.5z" fill="#423e4f"/></g><g><path d="m248.5 133.117c-9.017 0-17.59-3.905-23.523-10.714-2.722-3.123-2.396-7.86.727-10.582 3.122-2.721 7.859-2.396 10.582.727 3.084 3.539 7.536 5.568 12.215 5.568 4.68 0 9.132-2.03 12.216-5.568 2.72-3.123 7.458-3.448 10.582-.727 3.122 2.721 3.448 7.459.727 10.582-5.935 6.81-14.509 10.714-23.526 10.714z" fill="#423e4f"/></g></g><path d="m288.04 320.51c0 38.41-15.04 73.31-39.54 99.13-24.5-25.82-39.54-60.72-39.54-99.13 0-1.83.03-3.65.11-5.46 12.53 3.56 25.76 5.46 39.43 5.46s26.9-1.9 39.43-5.46c.08 1.81.11 3.63.11 5.46z" fill="#a4e6ff"/></g></svg>